<?xml version="1.0" encoding="utf-8"?>
<!-- Generator: Adobe Illustrator 16.0.4, SVG Export Plug-In . SVG Version: 6.00 Build 0)  -->
<!DOCTYPE svg PUBLIC "-//W3C//DTD SVG 1.1//EN" "http://www.w3.org/Graphics/SVG/1.1/DTD/svg11.dtd">
<svg version="1.1" id="Layer_1" xmlns="http://www.w3.org/2000/svg" xmlns:xlink="http://www.w3.org/1999/xlink" x="0px" y="0px"
	 width="234" height="270" viewBox="0 0 234 270" enable-background="new 0 0 234 270" xml:space="preserve">

<g>
	<g>
		<polygon fill="none" stroke="#808080" stroke-linecap="round" stroke-linejoin="round" points="99.2,50.568 117.2,40.177 
			135.2,50.569 135.2,71.354 117.2,81.746 99.2,71.354 		"/>
		<polygon fill="#FFCC68" points="102.8,52.646 117.2,44.334 131.601,52.648 131.601,69.275 117.2,77.588 102.8,69.275 		"/>
	</g>
	<g>
		<polygon fill="none" stroke="#808080" stroke-linecap="round" stroke-linejoin="round" points="117.2,19.392 135.2,9 
			153.2,19.393 153.2,40.177 135.2,50.569 117.2,40.177 		"/>
		<polygon fill="#6DC497" points="120.8,21.471 135.2,13.157 149.601,21.472 149.601,38.099 135.2,46.412 120.8,38.099 		"/>
	</g>
	<g>
		<polygon fill="none" stroke="#808080" stroke-linecap="round" stroke-linejoin="round" points="135.2,50.568 153.2,40.177 
			171.2,50.569 171.2,71.354 153.2,81.746 135.2,71.354 		"/>
		<polygon fill="#6DC497" points="138.8,52.646 153.2,44.334 167.601,52.648 167.601,69.275 153.2,77.589 138.8,69.275 		"/>
	</g>
	<g>
		<polygon fill="none" stroke="#808080" stroke-linecap="round" stroke-linejoin="round" points="63.2,50.568 81.2,40.176 
			99.2,50.568 99.2,71.354 81.2,81.746 63.2,71.354 		"/>
		<polygon fill="#FFCC68" points="66.8,52.646 81.2,44.334 95.601,52.648 95.601,69.275 81.2,77.588 66.8,69.275 		"/>
	</g>
	<g>
		<polygon fill="none" stroke="#808080" stroke-linecap="round" stroke-linejoin="round" points="45.2,81.744 63.2,71.354 
			81.2,81.746 81.2,102.529 63.2,112.922 45.2,102.529 		"/>
		<polygon fill="#FFCC68" points="48.8,83.823 63.2,75.51 77.601,83.824 77.601,100.451 63.2,108.765 48.8,100.451 		"/>
	</g>
	<g>
		<path fill="#C99631" d="M64.513,84.975V99.3h-2.625V84.975H64.513z"/>
	</g>
	<g>
		<polygon fill="none" stroke="#808080" stroke-linecap="round" stroke-linejoin="round" points="81.2,81.746 99.2,71.354 
			117.2,81.746 117.2,102.53 99.2,112.923 81.2,102.53 		"/>
		<polygon fill="#FFCC68" points="84.8,83.824 99.2,75.511 113.601,83.825 113.601,100.452 99.2,108.766 84.8,100.452 		"/>
	</g>
	<g>
		<polygon fill="none" stroke="#808080" stroke-linecap="round" stroke-linejoin="round" points="117.2,81.744 135.2,71.354 
			153.2,81.746 153.2,102.529 135.2,112.922 117.2,102.529 		"/>
		<polygon fill="#FFCC68" points="120.8,83.822 135.2,75.51 149.601,83.824 149.601,100.451 135.2,108.764 120.8,100.451 		"/>
	</g>
	<g>
		<path fill="#C99631" d="M134.53,84.883c1.359,0,2.441,0.389,3.246,1.164c0.803,0.775,1.203,1.809,1.203,3.102
			c0,0.984-0.299,2.051-0.896,3.199s-1.648,2.67-3.152,4.562h4.91v2.482h-9.279v-0.299c1.08-1.332,2.008-2.529,2.785-3.594
			c0.775-1.062,1.375-1.943,1.799-2.645s0.725-1.297,0.902-1.789s0.266-1.002,0.266-1.529c0-0.656-0.209-1.207-0.629-1.654
			c-0.422-0.449-0.932-0.672-1.533-0.672c-1.08,0-2.201,0.615-3.363,1.846v-2.811C132.011,85.338,133.259,84.883,134.53,84.883z"/>
	</g>
	<g>
		<polygon fill="none" stroke="#808080" stroke-linecap="round" stroke-linejoin="round" points="153.2,81.744 171.2,71.354 
			189.2,81.746 189.2,102.529 171.2,112.922 153.2,102.529 		"/>
		<polygon fill="#6DC497" points="156.8,83.824 171.2,75.51 185.601,83.824 185.601,100.451 171.2,108.766 156.8,100.451 		"/>
	</g>
	<g>
		<polygon fill="none" stroke="#808080" stroke-linecap="round" stroke-linejoin="round" points="27.2,112.921 45.2,102.529 
			63.2,112.922 63.2,133.705 45.2,144.098 27.2,133.705 		"/>
		<polygon fill="#6DC497" points="30.8,115 45.2,106.686 59.601,115 59.601,131.627 45.2,139.941 30.8,131.627 		"/>
	</g>
	<g>
		<path fill="#663534" d="M45.124,115.967c0.902,0,1.713,0.212,2.43,0.636c0.719,0.424,1.271,1.021,1.662,1.79
			c0.389,0.768,0.584,1.652,0.584,2.65c0,1.504-0.457,3.127-1.369,4.87s-2.127,3.325-3.645,4.747h-3.129
			c0.814-0.703,1.676-1.662,2.584-2.875c0.91-1.214,1.553-2.282,1.928-3.205c-0.512,0.219-1.059,0.328-1.641,0.328
			c-1.135,0-2.072-0.404-2.814-1.215c-0.74-0.811-1.111-1.848-1.111-3.112c0-0.834,0.193-1.604,0.584-2.312
			c0.389-0.709,0.934-1.269,1.631-1.682C43.515,116.174,44.282,115.967,45.124,115.967z M43.206,120.54
			c0,0.636,0.182,1.159,0.543,1.569c0.363,0.41,0.842,0.615,1.436,0.615c0.561,0,1.025-0.207,1.395-0.621
			c0.369-0.413,0.555-0.907,0.555-1.481c0-0.684-0.186-1.239-0.559-1.667c-0.373-0.426-0.857-0.641-1.451-0.641
			c-0.574,0-1.037,0.205-1.389,0.615C43.382,119.34,43.206,119.877,43.206,120.54z"/>
	</g>
	<g>
		<polygon fill="none" stroke="#808080" stroke-linecap="round" stroke-linejoin="round" points="63.2,112.921 81.2,102.529 
			99.2,112.922 99.2,133.705 81.2,144.098 63.2,133.705 		"/>
		<polygon fill="#FFCC68" points="66.8,114.999 81.2,106.686 95.601,115 95.601,131.627 81.2,139.94 66.8,131.627 		"/>
	</g>
	<g>
		<polygon fill="none" stroke="#808080" stroke-linecap="round" stroke-linejoin="round" points="99.2,112.92 117.2,102.529 
			135.2,112.922 135.2,133.705 117.2,144.098 99.2,133.705 		"/>
		<polygon fill="#6DC497" points="102.8,114.999 117.2,106.686 131.601,115 131.601,131.627 117.2,139.941 102.8,131.627 		"/>
	</g>
	<g>
		<path fill="#663534" d="M116.519,115.967c1.326,0,2.396,0.33,3.209,0.989c0.814,0.659,1.221,1.532,1.221,2.62
			c0,1.469-0.666,2.562-2,3.281c0.766,0.273,1.344,0.719,1.732,1.338c0.391,0.619,0.586,1.355,0.586,2.209
			c0,1.271-0.445,2.299-1.334,3.082s-2.057,1.174-3.506,1.174c-1.143,0-2.24-0.27-3.293-0.811v-2.521
			c0.582,0.389,1.115,0.671,1.6,0.846c0.486,0.174,0.982,0.262,1.488,0.262c0.67,0,1.219-0.19,1.645-0.569
			c0.428-0.38,0.641-0.874,0.641-1.481c0-0.67-0.234-1.205-0.707-1.605c-0.471-0.399-1.117-0.6-1.938-0.6h-0.164v-2.225h0.123
			c0.766,0,1.363-0.17,1.795-0.508c0.43-0.339,0.645-0.795,0.645-1.369c0-0.567-0.207-1.023-0.625-1.369
			c-0.416-0.345-0.949-0.518-1.6-0.518c-0.807,0-1.654,0.215-2.543,0.646v-2.246C114.39,116.175,115.397,115.967,116.519,115.967z"
			/>
	</g>
	<g>
		<polygon fill="none" stroke="#808080" stroke-linecap="round" stroke-linejoin="round" points="135.2,112.922 153.2,102.529 
			171.2,112.922 171.2,133.705 153.2,144.098 135.2,133.705 		"/>
		<polygon fill="#FFCC68" points="138.8,115 153.2,106.686 167.601,115 167.601,131.627 153.2,139.941 138.8,131.627 		"/>
	</g>
	<g>
		<polygon fill="none" stroke="#808080" stroke-linecap="round" stroke-linejoin="round" points="171.2,112.922 189.2,102.529 
			207.2,112.922 207.2,133.706 189.2,144.099 171.2,133.706 		"/>
		<polygon fill="#FFCC68" points="174.8,115 189.2,106.687 203.601,115.001 203.601,131.628 189.2,139.941 174.8,131.628 		"/>
	</g>
	<g>
		<path fill="#C99631" d="M189.124,115.967c0.902,0,1.713,0.213,2.43,0.637c0.719,0.424,1.271,1.02,1.662,1.789
			c0.389,0.769,0.584,1.652,0.584,2.65c0,1.504-0.457,3.127-1.369,4.871c-0.912,1.742-2.127,3.325-3.645,4.747h-3.129
			c0.814-0.704,1.676-1.663,2.584-2.876c0.91-1.213,1.553-2.281,1.928-3.205c-0.512,0.219-1.059,0.328-1.641,0.328
			c-1.135,0-2.072-0.404-2.814-1.215c-0.74-0.81-1.111-1.848-1.111-3.111c0-0.834,0.193-1.605,0.584-2.312
			c0.389-0.708,0.934-1.268,1.631-1.682S188.282,115.967,189.124,115.967z M187.206,120.541c0,0.635,0.182,1.158,0.543,1.568
			c0.363,0.41,0.842,0.615,1.436,0.615c0.561,0,1.025-0.207,1.395-0.62s0.555-0.907,0.555-1.481c0-0.684-0.186-1.239-0.559-1.667
			c-0.373-0.427-0.857-0.641-1.451-0.641c-0.574,0-1.037,0.205-1.389,0.615C187.382,119.341,187.206,119.877,187.206,120.541z"/>
	</g>
	<g>
		<polygon fill="none" stroke="#808080" stroke-linecap="round" stroke-linejoin="round" points="45.2,144.098 63.2,133.707 
			81.2,144.1 81.2,164.883 63.2,175.275 45.2,164.883 		"/>
		<polygon fill="#FFCC68" points="48.8,146.178 63.2,137.863 77.601,146.178 77.601,162.805 63.2,171.119 48.8,162.805 		"/>
	</g>
	<g>
		<polygon fill="none" stroke="#808080" stroke-linecap="round" stroke-linejoin="round" points="81.2,144.098 99.2,133.705 
			117.2,144.098 117.2,164.881 99.2,175.273 81.2,164.881 		"/>
		<polygon fill="#6DC497" points="84.8,146.176 99.2,137.861 113.601,146.176 113.601,162.803 99.2,171.117 84.8,162.803 		"/>
	</g>
	<g>
		<polygon fill="none" stroke="#808080" stroke-linecap="round" stroke-linejoin="round" points="117.2,144.098 135.2,133.705 
			153.2,144.098 153.2,164.881 135.2,175.273 117.2,164.881 		"/>
		<polygon fill="#6DC497" points="120.8,146.176 135.2,137.861 149.601,146.176 149.601,162.803 135.2,171.117 120.8,162.803 		"/>
	</g>
	<g>
		<polygon fill="none" stroke="#808080" stroke-linecap="round" stroke-linejoin="round" points="153.2,144.098 171.2,133.705 
			189.2,144.098 189.2,164.881 171.2,175.273 153.2,164.881 		"/>
		<polygon fill="#6DC497" points="156.8,146.176 171.2,137.861 185.601,146.176 185.601,162.803 171.2,171.117 156.8,162.803 		"/>
	</g>
	<g>
		<polygon fill="none" stroke="#808080" stroke-linecap="round" stroke-linejoin="round" points="135.2,175.273 153.2,164.881 
			171.2,175.273 171.2,196.059 153.2,206.451 135.2,196.059 		"/>
		<polygon fill="#6DC497" points="138.8,177.352 153.2,169.039 167.601,177.354 167.601,193.98 153.2,202.293 138.8,193.98 		"/>
	</g>
	<g>
		<polygon fill="none" stroke="#808080" stroke-linecap="round" stroke-linejoin="round" points="99.2,175.273 117.2,164.881 
			135.2,175.273 135.2,196.059 117.2,206.451 99.2,196.059 		"/>
		<polygon fill="#6DC497" points="102.8,177.352 117.2,169.039 131.601,177.354 131.601,193.98 117.2,202.293 102.8,193.98 		"/>
	</g>
	<g>
		<polygon fill="none" stroke="#808080" stroke-linecap="round" stroke-linejoin="round" points="81.2,206.449 99.2,196.059 
			117.2,206.451 117.2,227.234 99.2,237.627 81.2,227.234 		"/>
		<polygon fill="#6DC497" points="84.8,208.527 99.2,200.215 113.601,208.529 113.601,225.156 99.2,233.471 84.8,225.156 		"/>
	</g>
	<g>
		<polygon fill="none" stroke="#808080" stroke-linecap="round" stroke-linejoin="round" points="63.2,175.273 81.2,164.881 
			99.2,175.273 99.2,196.059 81.2,206.451 63.2,196.059 		"/>
		<polygon fill="#FFCC68" points="66.8,177.352 81.2,169.039 95.601,177.354 95.601,193.98 81.2,202.293 66.8,193.98 		"/>
	</g>
	<g>
		
			<line fill="none" stroke="#231F20" stroke-width="2" stroke-linecap="round" stroke-linejoin="round" x1="99.2" y1="50.568" x2="99.2" y2="71.352"/>
		<circle fill="#231F20" cx="99.2" cy="50.568" r="2.5"/>
		<circle fill="#231F20" cx="99.2" cy="71.352" r="2.5"/>
	</g>
	<g>
		
			<line fill="none" stroke="#231F20" stroke-width="2" stroke-linecap="round" stroke-linejoin="round" x1="135.2" y1="50.569" x2="135.2" y2="71.353"/>
		<circle fill="#231F20" cx="135.2" cy="50.569" r="2.5"/>
		<circle fill="#231F20" cx="135.2" cy="71.353" r="2.5"/>
	</g>
	<g>
		
			<line fill="none" stroke="#231F20" stroke-width="2" stroke-linecap="round" stroke-linejoin="round" x1="117.2" y1="81.746" x2="117.2" y2="102.529"/>
		<circle fill="#231F20" cx="117.2" cy="81.746" r="2.5"/>
		<circle fill="#231F20" cx="117.2" cy="102.529" r="2.5"/>
	</g>
	<g>
		
			<line fill="none" stroke="#231F20" stroke-width="2" stroke-linecap="round" stroke-linejoin="round" x1="171.2" y1="112.922" x2="171.2" y2="133.705"/>
		<circle fill="#231F20" cx="171.2" cy="112.922" r="2.5"/>
		<circle fill="#231F20" cx="171.2" cy="133.705" r="2.5"/>
	</g>
	<g>
		
			<line fill="none" stroke="#231F20" stroke-width="2" stroke-linecap="round" stroke-linejoin="round" x1="99.2" y1="175.273" x2="99.2" y2="196.057"/>
		<circle fill="#231F20" cx="99.2" cy="175.273" r="2.5"/>
		<circle fill="#231F20" cx="99.2" cy="196.057" r="2.5"/>
	</g>
	<g>
		
			<line fill="none" stroke="#231F20" stroke-width="2" stroke-linecap="round" stroke-linejoin="round" x1="63.2" y1="112.922" x2="81.2" y2="102.529"/>
		<circle fill="#231F20" cx="81.2" cy="102.529" r="2.5"/>
		<circle fill="#231F20" cx="63.2" cy="112.922" r="2.5"/>
	</g>
	<g>
		
			<line fill="none" stroke="#231F20" stroke-width="2" stroke-linecap="round" stroke-linejoin="round" x1="135.2" y1="112.922" x2="153.2" y2="102.529"/>
		<circle fill="#231F20" cx="153.2" cy="102.529" r="2.5"/>
		<circle fill="#231F20" cx="135.2" cy="112.922" r="2.5"/>
	</g>
	<g>
		
			<line fill="none" stroke="#231F20" stroke-width="2" stroke-linecap="round" stroke-linejoin="round" x1="63.2" y1="175.273" x2="81.2" y2="164.881"/>
		<circle fill="#231F20" cx="81.2" cy="164.881" r="2.5"/>
		<circle fill="#231F20" cx="63.2" cy="175.273" r="2.5"/>
	</g>
	<g>
		
			<line fill="none" stroke="#231F20" stroke-width="2" stroke-linecap="round" stroke-linejoin="round" x1="63.2" y1="133.705" x2="81.2" y2="144.098"/>
		<circle fill="#231F20" cx="63.2" cy="133.705" r="2.5"/>
		<circle fill="#231F20" cx="81.2" cy="144.098" r="2.5"/>
	</g>
	<g>
		
			<line fill="none" stroke="#231F20" stroke-width="2" stroke-linecap="round" stroke-linejoin="round" x1="99.2" y1="133.705" x2="117.2" y2="144.098"/>
		<circle fill="#231F20" cx="99.2" cy="133.705" r="2.5"/>
		<circle fill="#231F20" cx="117.2" cy="144.098" r="2.5"/>
	</g>
	<g>
		
			<line fill="none" stroke="#231F20" stroke-width="2" stroke-linecap="round" stroke-linejoin="round" x1="117.2" y1="164.881" x2="135.2" y2="175.273"/>
		<circle fill="#231F20" cx="117.2" cy="164.881" r="2.5"/>
		<circle fill="#231F20" cx="135.2" cy="175.273" r="2.5"/>
	</g>
	<g>
		
			<line fill="none" stroke="#231F20" stroke-width="2" stroke-linecap="round" stroke-linejoin="round" x1="153.2" y1="164.881" x2="171.2" y2="175.273"/>
		<circle fill="#231F20" cx="153.2" cy="164.881" r="2.5"/>
		<circle fill="#231F20" cx="171.2" cy="175.273" r="2.5"/>
	</g>
	<circle fill="none" stroke="#231F20" cx="45.198" cy="123.313" r="11.499"/>
	<g>
		<path fill="#999999" d="M18.323,115.967c1.395,0,2.738,0.349,4.029,1.046v2.461c-1.482-0.896-2.799-1.343-3.947-1.343
			c-0.697,0-1.242,0.135-1.635,0.404c-0.395,0.271-0.59,0.631-0.59,1.082c0,0.54,0.365,1.039,1.096,1.497
			c0.205,0.137,0.996,0.52,2.369,1.148c1.176,0.554,2.023,1.169,2.543,1.846s0.779,1.49,0.779,2.44c0,1.23-0.441,2.224-1.328,2.979
			c-0.885,0.756-2.031,1.133-3.439,1.133c-0.916,0-1.703-0.101-2.363-0.303c-0.66-0.201-1.4-0.548-2.221-1.04v-2.728
			c1.531,1.271,2.975,1.907,4.328,1.907c0.676,0,1.223-0.147,1.641-0.44c0.416-0.295,0.625-0.684,0.625-1.17
			c0-0.662-0.363-1.203-1.088-1.619c-0.602-0.328-1.377-0.722-2.326-1.18c-1.129-0.513-1.971-1.111-2.527-1.795
			c-0.559-0.684-0.836-1.477-0.836-2.379c0-1.203,0.447-2.161,1.342-2.875C15.671,116.324,16.853,115.967,18.323,115.967z"/>
	</g>
	<g>
		<path fill="#999999" d="M220.567,116.151v2.163h-5.969v3.702h5.969v2.185h-5.969v6.275h-2.768v-14.325H220.567z"/>
	</g>
	<circle fill="none" stroke="#231F20" cx="63.202" cy="92.135" r="11.5"/>
	<line fill="none" stroke="#231F20" x1="51.165" y1="113.48" x2="57.665" y2="102.221"/>
	<circle fill="none" stroke="#231F20" cx="135.202" cy="92.136" r="11.5"/>
	<circle fill="none" stroke="#231F20" cx="117.202" cy="123.312" r="11.5"/>
	<line fill="none" stroke="#231F20" x1="123.165" y1="113.481" x2="129.665" y2="102.222"/>
	<line fill="none" stroke="#231F20" x1="74.7" y1="92.385" x2="123.702" y2="92.385"/>
	<circle fill="none" stroke="#231F20" cx="189.202" cy="123.312" r="11.5"/>
	<line fill="none" stroke="#231F20" x1="128.7" y1="123.562" x2="177.702" y2="123.562"/>
</g>
<g>
	<g>
		<path fill="#673434" d="M72.124,245.445c0.688,0,1.305,0.162,1.852,0.484c0.547,0.323,0.969,0.777,1.266,1.363
			s0.445,1.26,0.445,2.02c0,1.146-0.348,2.383-1.043,3.711s-1.621,2.534-2.777,3.617h-2.383c0.62-0.536,1.276-1.267,1.969-2.191
			c0.692-0.924,1.183-1.738,1.469-2.441c-0.391,0.167-0.808,0.25-1.25,0.25c-0.864,0-1.579-0.309-2.145-0.926
			s-0.848-1.407-0.848-2.371c0-0.635,0.148-1.223,0.445-1.762s0.711-0.966,1.242-1.281
			C70.897,245.604,71.483,245.445,72.124,245.445z M70.663,248.93c0,0.484,0.138,0.883,0.414,1.195s0.641,0.469,1.094,0.469
			c0.427,0,0.781-0.157,1.062-0.473c0.281-0.314,0.422-0.691,0.422-1.129c0-0.521-0.142-0.943-0.426-1.27
			c-0.284-0.325-0.652-0.488-1.105-0.488c-0.438,0-0.79,0.156-1.059,0.469S70.663,248.425,70.663,248.93z"/>
		<path fill="#673434" d="M78.311,254.359c0.417,0,0.75,0.152,1,0.457s0.375,0.718,0.375,1.238c0,0.682-0.227,1.287-0.68,1.816
			c-0.453,0.528-1.021,0.85-1.703,0.965v-0.414c0.5-0.422,0.75-0.972,0.75-1.648v-0.117l-0.016-0.125
			c-0.589-0.109-0.883-0.466-0.883-1.07c0-0.307,0.11-0.567,0.332-0.781C77.708,254.467,77.983,254.359,78.311,254.359z"/>
		<path fill="#673434" d="M89.014,245.445c0.974,0,1.77,0.284,2.387,0.852c0.617,0.568,0.926,1.303,0.926,2.203
			c0,0.984-0.448,1.758-1.344,2.32c0.562,0.297,0.969,0.664,1.219,1.102s0.375,0.951,0.375,1.539c0,0.604-0.153,1.15-0.461,1.637
			c-0.308,0.487-0.734,0.866-1.281,1.137s-1.153,0.406-1.82,0.406c-1.042,0-1.899-0.297-2.574-0.891s-1.012-1.356-1.012-2.289
			c0-0.619,0.133-1.145,0.398-1.574s0.667-0.785,1.203-1.066c-0.896-0.567-1.344-1.346-1.344-2.336c0-0.896,0.312-1.626,0.934-2.191
			C87.242,245.729,88.041,245.445,89.014,245.445z M87.459,253.367c0,0.537,0.141,0.959,0.422,1.266
			c0.281,0.308,0.659,0.461,1.133,0.461s0.848-0.154,1.121-0.465c0.273-0.31,0.41-0.72,0.41-1.23c0-0.51-0.141-0.93-0.422-1.258
			s-0.646-0.492-1.094-0.492c-0.469,0-0.848,0.155-1.137,0.465C87.604,252.424,87.459,252.842,87.459,253.367z M87.686,248.531
			c0,0.469,0.125,0.854,0.375,1.152c0.25,0.3,0.567,0.449,0.953,0.449c0.375,0,0.688-0.154,0.938-0.465
			c0.25-0.31,0.375-0.688,0.375-1.137c0-0.474-0.118-0.849-0.355-1.125c-0.237-0.275-0.556-0.414-0.957-0.414
			c-0.406,0-0.729,0.136-0.969,0.406C87.806,247.67,87.686,248.047,87.686,248.531z"/>
		<path fill="#673434" d="M95.139,254.359c0.417,0,0.75,0.152,1,0.457s0.375,0.718,0.375,1.238c0,0.682-0.227,1.287-0.68,1.816
			c-0.453,0.528-1.021,0.85-1.703,0.965v-0.414c0.5-0.422,0.75-0.972,0.75-1.648v-0.117l-0.016-0.125
			c-0.589-0.109-0.883-0.466-0.883-1.07c0-0.307,0.11-0.567,0.332-0.781C94.537,254.467,94.811,254.359,95.139,254.359z"/>
		<path fill="#673434" d="M108.514,245.445c-0.583,0.484-1.228,1.201-1.934,2.148c-0.706,0.948-1.21,1.779-1.512,2.492
			c0.406-0.172,0.823-0.258,1.25-0.258c0.562,0,1.074,0.143,1.535,0.426c0.461,0.284,0.819,0.678,1.074,1.18
			c0.255,0.503,0.383,1.062,0.383,1.676c0,0.651-0.151,1.248-0.453,1.789c-0.302,0.542-0.719,0.968-1.25,1.277
			c-0.531,0.311-1.109,0.465-1.734,0.465c-1.062,0-1.923-0.357-2.582-1.074c-0.659-0.716-0.988-1.646-0.988-2.793
			c0-1.141,0.343-2.361,1.027-3.664c0.685-1.302,1.618-2.523,2.801-3.664H108.514z M104.334,253.109c0,0.506,0.142,0.922,0.426,1.25
			s0.649,0.492,1.098,0.492c0.438,0,0.792-0.154,1.062-0.465c0.271-0.31,0.406-0.72,0.406-1.23c0-0.479-0.14-0.876-0.418-1.191
			c-0.278-0.314-0.64-0.473-1.082-0.473c-0.427,0-0.782,0.155-1.066,0.465C104.476,252.268,104.334,252.651,104.334,253.109z"/>
		<path fill="#673434" d="M111.967,254.359c0.417,0,0.75,0.152,1,0.457s0.375,0.718,0.375,1.238c0,0.682-0.227,1.287-0.68,1.816
			c-0.453,0.528-1.021,0.85-1.703,0.965v-0.414c0.5-0.422,0.75-0.972,0.75-1.648v-0.117l-0.016-0.125
			c-0.589-0.109-0.883-0.466-0.883-1.07c0-0.307,0.11-0.567,0.332-0.781C111.365,254.467,111.639,254.359,111.967,254.359z"/>
		<path fill="#673434" d="M122.607,245.445c0.688,0,1.305,0.162,1.852,0.484c0.547,0.323,0.969,0.777,1.266,1.363
			s0.445,1.26,0.445,2.02c0,1.146-0.348,2.383-1.043,3.711s-1.621,2.534-2.777,3.617h-2.383c0.621-0.536,1.277-1.267,1.969-2.191
			c0.693-0.924,1.184-1.738,1.469-2.441c-0.391,0.167-0.807,0.25-1.25,0.25c-0.863,0-1.578-0.309-2.145-0.926
			c-0.564-0.617-0.848-1.407-0.848-2.371c0-0.635,0.148-1.223,0.445-1.762s0.711-0.966,1.242-1.281
			C121.381,245.604,121.967,245.445,122.607,245.445z M121.146,248.93c0,0.484,0.139,0.883,0.414,1.195
			c0.277,0.312,0.641,0.469,1.094,0.469c0.428,0,0.781-0.157,1.062-0.473c0.281-0.314,0.422-0.691,0.422-1.129
			c0-0.521-0.141-0.943-0.426-1.27c-0.283-0.325-0.652-0.488-1.105-0.488c-0.438,0-0.789,0.156-1.059,0.469
			C121.281,248.016,121.146,248.425,121.146,248.93z"/>
		<path fill="#673434" d="M128.795,254.359c0.418,0,0.75,0.152,1,0.457s0.375,0.718,0.375,1.238c0,0.682-0.227,1.287-0.68,1.816
			c-0.453,0.528-1.02,0.85-1.703,0.965v-0.414c0.5-0.422,0.75-0.972,0.75-1.648v-0.117l-0.016-0.125
			c-0.588-0.109-0.883-0.466-0.883-1.07c0-0.307,0.111-0.567,0.332-0.781C128.193,254.467,128.467,254.359,128.795,254.359z"/>
		<path fill="#808080" d="M139.498,245.445c1.105,0,1.98,0.498,2.629,1.492c0.648,0.995,0.973,2.354,0.973,4.078
			c0,1.74-0.32,3.112-0.961,4.117c-0.641,1.006-1.516,1.508-2.625,1.508c-1.125,0-2.014-0.498-2.668-1.496
			c-0.652-0.997-0.98-2.363-0.98-4.098c0-1.729,0.326-3.095,0.977-4.098C137.494,245.947,138.379,245.445,139.498,245.445z
			 M137.896,251.109c0,2.495,0.535,3.742,1.602,3.742c1.043,0,1.562-1.312,1.562-3.938c0-2.453-0.525-3.68-1.578-3.68
			C138.426,247.234,137.896,248.526,137.896,251.109z"/>
	</g>
	<g>
		<path fill="#010101" d="M165.953,246.75c0.033,0.182-0.092,0.451-0.379,0.806c-0.051,0.069-0.146,0.142-0.285,0.215
			s-0.234,0.149-0.285,0.228l-2.094,3.042l2.105,3.666c0.043,0.069,0.125,0.143,0.24,0.221c0.117,0.078,0.193,0.156,0.229,0.234
			c0.096,0.208,0.143,0.364,0.143,0.468c0,0.096-0.025,0.178-0.078,0.247c-0.096,0.139-0.354,0.347-0.773,0.624
			s-0.699,0.425-0.838,0.442c-0.07,0.008-0.174-0.022-0.312-0.092c-0.174-0.077-0.281-0.173-0.324-0.285
			c-0.01-0.183-0.074-0.455-0.195-0.819l-1.443-2.444l-1.482,2.535c-0.043,0.069-0.068,0.174-0.078,0.312
			c-0.008,0.139-0.025,0.242-0.051,0.312c-0.078,0.182-0.139,0.304-0.182,0.364c-0.078,0.112-0.184,0.182-0.312,0.208
			c-0.209,0.043-0.578-0.055-1.111-0.293s-0.865-0.457-0.996-0.656c-0.043-0.069-0.064-0.139-0.064-0.208
			c0-0.139,0.117-0.334,0.352-0.585c0.104-0.078,0.242-0.221,0.416-0.429l2.248-3.81l-2.014-3.367
			c-0.045-0.068-0.139-0.16-0.287-0.272c-0.146-0.112-0.221-0.208-0.221-0.286c-0.008-0.139,0.213-0.396,0.664-0.773
			c0.449-0.377,0.787-0.583,1.014-0.617c0.217-0.035,0.373,0.018,0.467,0.155c0.027,0.096,0.084,0.243,0.17,0.442l1.469,2.6
			l1.717-2.495c0.008-0.104,0.055-0.252,0.143-0.442c0.096-0.13,0.307-0.212,0.637-0.247c0.156-0.018,0.484,0.106,0.988,0.37
			C165.648,246.384,165.918,246.594,165.953,246.75z"/>
	</g>
</g>
<g>
	<path fill="#231F20" d="M41.915,18.814v1.236h-3.709v2.15h3.551v1.236h-3.551v2.326h3.791V27h-5.373v-8.186H41.915z"/>
	<path fill="#231F20" d="M44.323,21.527l1.365,1.717l1.312-1.717h1.729l-2.197,2.689L48.894,27h-1.729l-1.477-1.811L44.276,27
		h-1.682l2.268-2.783l-2.268-2.689H44.323z"/>
	<path fill="#231F20" d="M51.606,21.422c0.703,0,1.24,0.149,1.611,0.448s0.557,0.716,0.557,1.251v2.678
		c0,0.207,0.084,0.311,0.252,0.311c0.07,0,0.169-0.03,0.296-0.091s0.233-0.13,0.319-0.208v0.832
		c-0.504,0.309-0.965,0.463-1.383,0.463c-0.258,0-0.456-0.043-0.595-0.129s-0.235-0.238-0.29-0.457
		c-0.551,0.391-1.104,0.586-1.658,0.586c-0.395,0-0.733-0.133-1.017-0.398s-0.425-0.584-0.425-0.955
		c0-0.473,0.141-0.846,0.422-1.119s0.773-0.512,1.477-0.715l1.166-0.34v-0.252c0-0.535-0.324-0.803-0.973-0.803
		c-0.332,0-0.662,0.076-0.99,0.229s-0.627,0.377-0.896,0.674v-1.295C50.077,21.658,50.786,21.422,51.606,21.422z M50.728,25.535
		c0,0.199,0.063,0.359,0.19,0.48s0.284,0.182,0.472,0.182c0.316,0,0.633-0.145,0.949-0.434v-1.441
		c-0.402,0.137-0.718,0.266-0.946,0.387s-0.396,0.244-0.504,0.369S50.728,25.355,50.728,25.535z"/>
	<path fill="#231F20" d="M58.603,21.422c0.422,0,0.778,0.099,1.069,0.296s0.509,0.462,0.653,0.794
		c0.309-0.379,0.616-0.655,0.923-0.829s0.644-0.261,1.011-0.261c0.578,0,1.045,0.188,1.4,0.565s0.533,0.88,0.533,1.509V27h-1.441
		v-3.264c0-0.379-0.081-0.678-0.243-0.896s-0.397-0.328-0.706-0.328c-0.441,0-0.865,0.283-1.271,0.85V27h-1.436v-3.287
		c0-0.375-0.086-0.669-0.258-0.882s-0.402-0.319-0.691-0.319c-0.234,0-0.449,0.067-0.645,0.202s-0.404,0.351-0.627,0.647V27h-1.441
		v-5.473h1.441v0.768c0.262-0.297,0.527-0.517,0.797-0.659S58.251,21.422,58.603,21.422z"/>
	<path fill="#231F20" d="M68.405,21.422c0.781,0,1.411,0.262,1.89,0.785s0.718,1.205,0.718,2.045c0,0.551-0.112,1.043-0.337,1.477
		s-0.544,0.771-0.958,1.014s-0.883,0.363-1.406,0.363c-0.426,0-0.854-0.107-1.283-0.322v2.977h-1.441v-8.232h1.43v0.352
		C67.45,21.574,67.913,21.422,68.405,21.422z M67.028,25.729c0.359,0.207,0.695,0.311,1.008,0.311c0.453,0,0.816-0.162,1.09-0.486
		s0.41-0.742,0.41-1.254c0-0.559-0.122-0.996-0.366-1.312s-0.591-0.475-1.04-0.475c-0.168,0-0.33,0.028-0.486,0.085
		s-0.361,0.177-0.615,0.36V25.729z"/>
	<path fill="#231F20" d="M73.649,18.814V27h-1.441v-8.186H73.649z"/>
	<path fill="#231F20" d="M77.587,21.422c0.805,0,1.441,0.258,1.91,0.773s0.703,1.229,0.703,2.139v0.217h-3.873
		c0.059,0.488,0.241,0.864,0.548,1.128s0.728,0.396,1.263,0.396c0.344,0,0.675-0.06,0.993-0.179s0.647-0.3,0.987-0.542v1.072
		c-0.641,0.453-1.418,0.68-2.332,0.68c-0.863,0-1.568-0.26-2.115-0.779s-0.82-1.211-0.82-2.074c0-0.832,0.253-1.512,0.759-2.039
		S76.774,21.422,77.587,21.422z M78.847,23.678c-0.039-0.398-0.16-0.71-0.363-0.935s-0.482-0.337-0.838-0.337
		c-0.363,0-0.655,0.107-0.876,0.322s-0.36,0.531-0.419,0.949H78.847z"/>
	<path fill="#231F20" d="M87.858,18.814V27h-1.5v-8.186H87.858z"/>
</g>
</svg>
